<?xml version="1.0" encoding="iso-8859-1"?>
<!-- Generator: Adobe Illustrator 19.0.0, SVG Export Plug-In . SVG Version: 6.00 Build 0)  -->
<svg version="1.1" id="Capa_1" xmlns="http://www.w3.org/2000/svg" xmlns:xlink="http://www.w3.org/1999/xlink" x="0px" y="0px"
	 viewBox="0 0 512 512" style="enable-background:new 0 0 512 512;" xml:space="preserve">
<g>
	<g>
		<g>
			<path d="M216,201c-11.046,0-20,8.954-20,20v70c0,11.046,8.954,20,20,20s20-8.954,20-20v-70C236,209.954,227.046,201,216,201z"/>
			<path d="M492,206c11.046,0,20-8.954,20-20V76c0-11.046-8.954-20-20-20H20C8.954,56,0,64.954,0,76v360c0,11.046,8.954,20,20,20
				h472c11.046,0,20-8.954,20-20V326c0-11.046-8.954-20-20-20c-27.57,0-50-22.43-50-50S464.43,206,492,206z M472,343.76V416H236v-50
				c0-11.046-8.954-20-20-20s-20,8.954-20,20v50H40V96h156v50c0,11.046,8.954,20,20,20s20-8.954,20-20V96h236v72.24
				c-40.032,9.12-70,45.007-70,87.76S431.968,334.641,472,343.76z"/>
		</g>
	</g>
</g>
<g>
</g>
<g>
</g>
<g>
</g>
<g>
</g>
<g>
</g>
<g>
</g>
<g>
</g>
<g>
</g>
<g>
</g>
<g>
</g>
<g>
</g>
<g>
</g>
<g>
</g>
<g>
</g>
<g>
</g>
</svg>
